<svg xmlns="http://www.w3.org/2000/svg" xml:space="preserve" width="714" height="150" style="shape-rendering:geometricPrecision;text-rendering:geometricPrecision;image-rendering:optimizeQuality;fill-rule:evenodd;clip-rule:evenodd" viewBox="0 0 494.27 103.91"><defs><style>.fil1,.fil2{fill:#ff000f}.fil2{fill-rule:nonzero}</style></defs><g id="Слой_x0020_1"><path d="M36.48 103.91V68.55L20.62 52.99l.01 50.92zm15.2-76.86L23.44 0H3.22l50.02 49.61L103.26 0H83.04L53.23 28.54l-1.55-1.5zm18.43 41.5v35.36h15.85l.02-50.92zM51.66 54.58l1.58 1.56 53.23-52.77-.26 100.54H90.35V42.3L53.23 78.71 16.12 42.3v61.61H.26L0 3.37l51.65 51.21z" style="fill:#fff"/><path d="M160.88 15.87h-48.95V.01L176.44 0zM147.29 59.89h-35.36V44.04l50.92-.02zM160.88 103.91h-48.95V88.06l64.51-.02z" class="fil1"/><path d="M224.24 24.43c0 .12-.03.24-.1.34a.8.8 0 0 1-.37.24q-.27.09-.72.15c-.3.03-.68.05-1.14.05-.45 0-.83-.02-1.13-.05-.3-.04-.53-.09-.71-.15a.8.8 0 0 1-.37-.24.6.6 0 0 1-.11-.34V4.81h-.04l-6.96 19.6c-.05.16-.13.29-.24.4-.12.11-.26.19-.46.26-.19.05-.44.1-.73.12-.3.02-.66.02-1.08.02-.43 0-.78-.01-1.08-.04s-.55-.08-.74-.15-.34-.16-.46-.25a.75.75 0 0 1-.22-.36l-6.72-19.6h-.04v19.62c0 .12-.03.24-.1.34-.07.09-.2.18-.38.24-.19.06-.43.11-.73.15-.29.03-.66.05-1.12.05-.45 0-.83-.02-1.13-.05q-.45-.06-.72-.15a.8.8 0 0 1-.37-.24c-.07-.1-.1-.22-.1-.34V2.95c0-.64.16-1.12.5-1.46.34-.33.78-.5 1.35-.5h3.2c.57 0 1.07.05 1.48.14.41.1.77.25 1.06.47.3.21.55.5.75.85.2.36.37.8.52 1.32l5.19 14.36h.08l5.38-14.33c.16-.52.34-.96.53-1.32s.42-.65.67-.87.56-.38.9-.48c.35-.09.76-.14 1.22-.14h3.3c.34 0 .63.05.87.14.24.08.44.2.6.38.15.16.27.37.35.61s.12.52.12.83z" class="fil2"/><path id="_1" d="M246.02 15.99c0 1.41-.18 2.7-.56 3.87-.37 1.16-.93 2.17-1.69 3.01-.76.85-1.71 1.5-2.85 1.96-1.15.46-2.48.69-4.01.69-1.48 0-2.76-.2-3.86-.62-1.09-.4-2-1-2.72-1.78-.72-.79-1.25-1.75-1.6-2.89s-.52-2.44-.52-3.91c0-1.41.19-2.71.57-3.88s.94-2.18 1.71-3.02c.75-.83 1.7-1.48 2.84-1.94q1.695-.69 3.99-.69c1.49 0 2.78.2 3.88.6 1.09.41 1.99 1 2.71 1.78.71.79 1.24 1.75 1.59 2.89s.52 2.45.52 3.93m-4.8.18c0-.82-.07-1.57-.2-2.26s-.35-1.29-.67-1.8a3.2 3.2 0 0 0-1.24-1.19c-.52-.29-1.17-.43-1.96-.43-.7 0-1.31.13-1.83.38-.52.26-.96.63-1.29 1.12-.34.49-.6 1.08-.76 1.77-.17.69-.25 1.47-.25 2.36 0 .82.07 1.57.2 2.26.14.69.36 1.29.67 1.8.3.51.71.9 1.24 1.18q.78.42 1.95.42c.71 0 1.33-.13 1.85-.38.53-.26.96-.62 1.29-1.11.34-.49.59-1.07.75-1.76s.25-1.47.25-2.36" class="fil2"/><path id="_2" d="M265.85 24.47c0 .12-.04.23-.12.32-.07.1-.2.18-.37.24-.18.06-.42.11-.72.14-.31.03-.68.04-1.13.04-.46 0-.84-.01-1.15-.04-.3-.03-.55-.08-.72-.14-.18-.06-.3-.14-.37-.24a.47.47 0 0 1-.12-.32v-6.54h-6.71v6.54c0 .12-.04.23-.11.32q-.105.15-.39.24c-.17.06-.42.11-.71.14-.3.03-.68.04-1.14.04-.45 0-.84-.01-1.13-.04-.3-.03-.54-.08-.72-.14s-.31-.14-.38-.24a.52.52 0 0 1-.11-.32V7.84c0-.12.04-.23.11-.33.07-.09.2-.17.38-.23s.42-.11.72-.14c.29-.03.68-.05 1.13-.05.46 0 .84.02 1.14.05.29.03.54.08.71.14.19.06.32.14.39.23.07.1.11.21.11.33v6.24h6.71V7.84q0-.18.12-.33c.07-.09.19-.17.37-.23.17-.06.42-.11.72-.14.31-.03.69-.05 1.15-.05.45 0 .82.02 1.13.05.3.03.54.08.72.14.17.06.3.14.37.23q.12.15.12.33z" class="fil2"/><path id="_3" d="M287.33 15.99c0 1.41-.18 2.7-.56 3.87-.37 1.16-.93 2.17-1.69 3.01-.76.85-1.71 1.5-2.85 1.96-1.15.46-2.48.69-4.01.69-1.48 0-2.76-.2-3.86-.62-1.09-.4-2-1-2.72-1.78-.72-.79-1.25-1.75-1.6-2.89s-.52-2.44-.52-3.91c0-1.41.19-2.71.57-3.88s.94-2.18 1.71-3.02c.75-.83 1.7-1.48 2.84-1.94q1.695-.69 3.99-.69c1.49 0 2.78.2 3.88.6 1.09.41 1.99 1 2.71 1.78.71.79 1.24 1.75 1.59 2.89s.52 2.45.52 3.93m-4.8.18c0-.82-.07-1.57-.2-2.26s-.35-1.29-.67-1.8a3.2 3.2 0 0 0-1.24-1.19c-.52-.29-1.17-.43-1.96-.43-.69 0-1.31.13-1.83.38-.52.26-.96.63-1.29 1.12-.34.49-.59 1.08-.76 1.77s-.25 1.47-.25 2.36c0 .82.07 1.57.2 2.26.14.69.36 1.29.67 1.8.3.51.72.9 1.24 1.18q.78.42 1.95.42c.71 0 1.33-.13 1.85-.38.53-.26.96-.62 1.3-1.11.33-.49.58-1.07.75-1.76.15-.69.24-1.47.24-2.36" class="fil2"/><path id="_4" d="M305.78 24.47c0 .12-.04.23-.12.32-.07.1-.2.18-.37.24s-.42.11-.72.14c-.31.03-.68.04-1.13.04-.46 0-.84-.01-1.15-.04-.3-.03-.55-.08-.73-.14s-.3-.14-.37-.24a.52.52 0 0 1-.11-.32V11.02h-3.35c-.2 1.96-.45 3.67-.74 5.14-.29 1.48-.63 2.75-1.02 3.82-.38 1.07-.8 1.95-1.27 2.65-.47.71-.98 1.26-1.54 1.67-.56.42-1.17.71-1.82.88s-1.34.26-2.06.26c-.17 0-.32-.02-.43-.07a.54.54 0 0 1-.26-.29c-.06-.15-.11-.35-.13-.62-.03-.28-.04-.64-.04-1.09 0-.46.01-.83.03-1.12s.05-.5.1-.66c.05-.15.12-.25.21-.31.09-.05.19-.07.32-.07.34 0 .68-.07 1-.22.32-.14.62-.39.9-.76s.54-.85.79-1.46c.26-.59.48-1.36.69-2.28.22-.91.42-2.01.61-3.29.18-1.27.37-2.75.54-4.45.02-.5.13-.88.32-1.13s.51-.37.94-.37h9.62c.43 0 .76.12.97.37s.32.63.32 1.13z" class="fil2"/><path id="_5" d="M327.02 24.53c0 .12-.04.23-.11.31q-.105.135-.36.21c-.18.06-.41.1-.7.13-.3.02-.66.03-1.12.03-.44 0-.82-.01-1.13-.03-.3-.03-.55-.07-.74-.13-.2-.05-.33-.12-.41-.21a.4.4 0 0 1-.13-.31v-7.42a31 31 0 0 1 .19-3.27c-.3.53-.62 1.04-.97 1.54-.35.51-.7 1-1.06 1.5l-5.61 7.63c-.11.13-.21.25-.31.34-.1.1-.23.17-.39.22-.15.06-.35.1-.58.12-.24.02-.54.02-.92.02q-.66 0-1.08-.03c-.28-.03-.51-.07-.67-.13-.17-.05-.29-.12-.36-.22-.07-.09-.1-.2-.1-.32V7.82c0-.11.03-.21.1-.31.07-.09.19-.17.38-.23.18-.06.41-.11.7-.14.3-.03.67-.05 1.11-.05.88 0 1.5.07 1.86.19.37.13.54.3.54.54v7.38c0 .52-.02 1.04-.05 1.59-.04.55-.09 1.07-.15 1.58.3-.49.6-.99.91-1.48s.64-.96.99-1.42l5.66-7.65c.1-.13.21-.25.32-.34s.25-.17.42-.23c.17-.05.37-.09.61-.12.25-.02.56-.04.95-.04.44 0 .79.02 1.09.04.28.03.51.07.68.14a.6.6 0 0 1 .34.24c.06.09.1.21.1.33z" class="fil2"/><path id="_6" d="M344.02 9.27c0 .41-.02.75-.05 1.02s-.08.49-.14.65-.14.27-.23.33c-.1.07-.2.1-.31.1h-4.19v13.1c0 .12-.04.23-.12.32-.07.1-.2.18-.37.24s-.41.11-.72.14c-.3.03-.68.04-1.14.04-.45 0-.82-.01-1.12-.04-.29-.03-.53-.08-.71-.14-.19-.06-.31-.14-.38-.24-.07-.09-.1-.2-.1-.32v-13.1h-4.17c-.13 0-.24-.03-.33-.1a.8.8 0 0 1-.23-.35c-.07-.16-.11-.38-.14-.67-.04-.28-.05-.63-.05-1.04q0-.555.06-.93c.04-.26.08-.47.14-.63.07-.15.14-.27.23-.34s.19-.1.32-.1h13.02c.11 0 .21.03.31.1.09.07.17.19.23.34.07.16.11.38.14.65.03.26.05.59.05.97" class="fil2"/><path id="_7" d="M364.68 24.45c0 .13-.04.25-.12.34-.07.1-.2.18-.4.24-.19.06-.45.11-.77.14-.33.03-.74.04-1.25.04-.54 0-.97-.01-1.3-.04s-.59-.08-.79-.15-.35-.16-.45-.28-.17-.26-.22-.44l-1.94-5.37c-.28-.79-.56-1.45-.86-1.97-.3-.53-.63-.96-.99-1.3q-.54-.48-1.23-.69c-.46-.14-.98-.21-1.55-.21h-1.1v9.67c0 .14-.04.25-.12.34-.07.1-.2.18-.38.25q-.285.105-.75.15c-.3.03-.7.04-1.18.04-.47 0-.86-.01-1.18-.04q-.48-.045-.75-.15c-.19-.07-.32-.15-.4-.25-.09-.09-.12-.2-.12-.34V1.64c0-.13.03-.25.12-.34.08-.1.21-.17.4-.24.18-.06.43-.11.75-.14s.71-.04 1.18-.04c.48 0 .88.01 1.18.04.31.03.56.08.75.14.18.07.31.14.38.24.08.09.12.2.12.34v9.04h1.1c.56 0 1.05-.08 1.47-.22.43-.15.81-.39 1.15-.71.35-.32.66-.74.94-1.26.28-.51.55-1.15.81-1.9l1.62-4.8c.07-.18.14-.32.23-.44s.22-.21.42-.28c.19-.07.44-.12.76-.15.31-.03.74-.04 1.27-.04.48 0 .88.01 1.2.04.31.03.56.08.74.14.18.05.3.12.36.22.06.09.1.21.1.34q0 .24-.09.6c-.05.23-.15.55-.29.93l-1.61 4.28c-.3.79-.6 1.47-.9 2.02-.3.56-.61 1.04-.94 1.43-.32.39-.67.71-1.04.96s-.77.45-1.22.61v.02q.75.315 1.35.72c.41.27.79.61 1.14 1.01.35.42.7.92 1.02 1.52.32.59.65 1.32.99 2.2l1.97 5c.21.51.32.86.36 1.05q.06.285.06.48" class="fil2"/><path id="_8" d="M384.28 15.99c0 1.41-.19 2.7-.56 3.87-.38 1.16-.94 2.17-1.7 3.01-.76.85-1.7 1.5-2.85 1.96-1.14.46-2.48.69-4 .69-1.48 0-2.77-.2-3.86-.62-1.09-.4-2-1-2.72-1.78-.72-.79-1.25-1.75-1.6-2.89s-.53-2.44-.53-3.91c0-1.41.2-2.71.57-3.88.38-1.17.95-2.18 1.71-3.02.76-.83 1.7-1.48 2.84-1.94 1.13-.46 2.47-.69 3.99-.69 1.5 0 2.79.2 3.88.6 1.1.41 2 1 2.71 1.78.72.79 1.25 1.75 1.6 2.89s.52 2.45.52 3.93m-4.81.18c0-.82-.06-1.57-.2-2.26q-.195-1.035-.66-1.8c-.31-.51-.73-.91-1.24-1.19-.52-.29-1.17-.43-1.96-.43-.7 0-1.31.13-1.84.38-.52.26-.95.63-1.29 1.12s-.59 1.08-.76 1.77-.25 1.47-.25 2.36c0 .82.07 1.57.2 2.26.14.69.37 1.29.67 1.8.31.51.72.9 1.25 1.18.52.28 1.17.42 1.94.42.72 0 1.33-.13 1.86-.38.52-.26.95-.62 1.29-1.11s.58-1.07.75-1.76c.16-.69.24-1.47.24-2.36" class="fil2"/><path id="_9" d="M411.41 24.37c.02.32-.13.53-.43.66-.31.12-.87.18-1.67.18-.48 0-.87 0-1.16-.02-.29-.01-.51-.04-.67-.09s-.26-.12-.32-.21a.8.8 0 0 1-.1-.36l-.99-8.94c-.03-.32-.07-.68-.1-1.08l-.09-1.2c-.03-.42-.06-.82-.08-1.22-.03-.41-.06-.77-.1-1.1l.02-.46c-.09.33-.18.7-.28 1.1-.11.39-.23.8-.35 1.21-.13.41-.24.82-.35 1.22s-.22.77-.32 1.09l-2.91 9.21c-.05.15-.13.27-.23.39q-.15.165-.42.27t-.69.15c-.27.03-.63.04-1.05.04-.38 0-.71-.01-.98-.04-.26-.03-.49-.08-.66-.15a1.1 1.1 0 0 1-.42-.27 1 1 0 0 1-.21-.41L394 15.15c-.1-.32-.2-.69-.33-1.08-.12-.4-.23-.8-.35-1.22-.12-.4-.23-.81-.33-1.22-.11-.4-.2-.77-.28-1.1l.02.46c-.02.33-.05.69-.07 1.1-.03.4-.05.8-.09 1.22l-.12 1.2q-.045.6-.09 1.08l-.94 8.82c-.03.16-.07.29-.14.4-.05.11-.17.19-.35.26-.17.05-.41.1-.71.12s-.69.02-1.17.02q-.66 0-1.05-.03c-.26-.03-.46-.07-.61-.14a.57.57 0 0 1-.28-.27c-.03-.1-.05-.24-.04-.4l1.64-15.56c.06-.53.23-.93.52-1.2s.72-.4 1.3-.4h2.37c.5 0 .92.04 1.27.11s.65.21.91.39c.27.19.48.44.65.76.18.33.33.74.47 1.22l1.87 5.7c.11.38.22.76.33 1.16.11.41.23.81.33 1.22.12.4.22.79.31 1.17.1.38.18.74.25 1.07h.02c.08-.33.16-.7.26-1.1.11-.4.21-.8.31-1.21.11-.41.22-.81.34-1.21.11-.4.22-.77.34-1.12l1.86-5.68c.12-.45.26-.83.4-1.15.16-.31.35-.57.58-.76.24-.2.53-.34.88-.43.34-.1.77-.14 1.28-.14h2.34c.6 0 1.04.13 1.34.4q.42.405.51 1.2z" class="fil2"/><path id="_10" d="M437.38 16.02c0 1.37-.21 2.61-.62 3.74-.41 1.12-1.01 2.1-1.81 2.92-.79.82-1.76 1.48-2.93 1.97-1.15.49-2.48.78-3.95.87v5.53c0 .13-.04.23-.12.34-.07.09-.19.18-.37.24-.17.07-.41.13-.72.16-.31.04-.68.06-1.13.06q-.69 0-1.14-.06c-.3-.03-.54-.09-.72-.16a.8.8 0 0 1-.38-.24.53.53 0 0 1-.11-.34v-5.53c-1.52-.06-2.85-.31-4.02-.76-1.16-.44-2.12-1.05-2.91-1.83-.78-.78-1.37-1.73-1.78-2.85-.4-1.12-.6-2.37-.6-3.78 0-1.36.21-2.61.62-3.74a8.4 8.4 0 0 1 1.82-2.93c.79-.82 1.77-1.49 2.92-1.98 1.16-.49 2.47-.77 3.95-.86V.8c0-.13.03-.23.11-.34.07-.09.2-.18.38-.24.18-.07.42-.12.72-.16q.45-.06 1.14-.06c.45 0 .82.02 1.13.06s.55.09.72.16c.18.06.3.15.37.24.08.11.12.21.12.34v5.99c1.52.06 2.87.32 4.03.76 1.16.45 2.13 1.06 2.91 1.85.78.78 1.37 1.73 1.77 2.84q.6 1.68.6 3.78m-4.77.2c0-1.67-.35-3-1.06-3.97-.7-.97-1.86-1.55-3.48-1.72v11.25c1.45-.11 2.57-.63 3.36-1.55.78-.93 1.18-2.26 1.18-4.01m-9.23-5.67c-1.46.11-2.58.62-3.37 1.53q-1.17 1.365-1.17 4.05c0 .81.08 1.56.25 2.22.17.67.43 1.23.8 1.71.35.48.82.87 1.39 1.16.58.3 1.28.49 2.1.58z" class="fil2"/><path id="_11" d="M457.76 15.99c0 1.41-.19 2.7-.56 3.87-.38 1.16-.94 2.17-1.7 3.01-.76.85-1.7 1.5-2.85 1.96-1.14.46-2.48.69-4 .69-1.48 0-2.77-.2-3.86-.62-1.1-.4-2-1-2.72-1.78-.72-.79-1.26-1.75-1.6-2.89-.35-1.14-.53-2.44-.53-3.91 0-1.41.19-2.71.57-3.88s.95-2.18 1.71-3.02c.76-.83 1.7-1.48 2.84-1.94 1.13-.46 2.47-.69 3.99-.69 1.5 0 2.79.2 3.88.6 1.1.41 2 1 2.71 1.78.72.79 1.25 1.75 1.6 2.89s.52 2.45.52 3.93m-4.81.18c0-.82-.06-1.57-.2-2.26q-.195-1.035-.66-1.8c-.32-.51-.73-.91-1.24-1.19-.52-.29-1.17-.43-1.96-.43-.7 0-1.31.13-1.84.38-.52.26-.95.63-1.29 1.12s-.59 1.08-.76 1.77-.25 1.47-.25 2.36c0 .82.07 1.57.2 2.26.14.69.37 1.29.67 1.8.31.51.72.9 1.25 1.18.52.28 1.17.42 1.94.42.71 0 1.33-.13 1.86-.38.52-.26.95-.62 1.29-1.11s.58-1.07.75-1.76c.16-.69.24-1.47.24-2.36" class="fil2"/><path id="_12" d="M478.19 15.91c0 1.48-.16 2.81-.48 4-.31 1.18-.77 2.19-1.38 3.02a6.2 6.2 0 0 1-2.27 1.92c-.91.45-1.94.67-3.1.67-.49 0-.93-.05-1.33-.14-.41-.1-.8-.24-1.18-.43-.37-.19-.75-.43-1.12-.72-.37-.28-.76-.62-1.16-1v7.82c0 .13-.03.23-.11.34-.07.09-.2.18-.38.24-.18.07-.42.13-.71.16q-.45.06-1.14.06t-1.14-.06c-.29-.03-.53-.09-.71-.16a.76.76 0 0 1-.38-.24.54.54 0 0 1-.12-.34V7.84c0-.12.03-.23.1-.33.06-.09.16-.17.32-.23.15-.06.36-.11.62-.14.25-.03.57-.05.95-.05s.69.02.94.05c.26.03.47.08.62.14s.26.14.32.23c.07.1.1.21.1.33V9.8c.48-.49.95-.93 1.42-1.31a8.5 8.5 0 0 1 1.42-.94c.49-.26.99-.45 1.5-.58.52-.12 1.06-.18 1.65-.18 1.21 0 2.25.24 3.11.72.85.47 1.55 1.13 2.09 1.96s.93 1.8 1.18 2.91c.25 1.1.37 2.28.37 3.53m-4.88.33c0-.71-.05-1.39-.16-2.04-.1-.65-.29-1.22-.54-1.73-.26-.51-.59-.92-1-1.22-.42-.3-.93-.46-1.55-.46-.31 0-.62.05-.92.14-.31.1-.61.25-.93.46s-.64.49-.97.82c-.34.33-.7.75-1.07 1.24v5.48c.66.82 1.29 1.46 1.88 1.91.6.45 1.21.67 1.86.67.61 0 1.12-.15 1.55-.46.42-.31.78-.72 1.05-1.21.27-.51.47-1.07.6-1.71.13-.63.2-1.26.2-1.89" class="fil2"/><path id="_13" d="M494.27 9.27c0 .41-.01.75-.04 1.02s-.08.49-.14.65q-.09.24-.24.33c-.09.07-.19.1-.3.1h-4.2v13.1c0 .12-.03.23-.11.32-.07.1-.2.18-.37.24s-.41.11-.72.14c-.3.03-.68.04-1.14.04-.45 0-.82-.01-1.12-.04-.29-.03-.54-.08-.71-.14-.19-.06-.31-.14-.38-.24-.07-.09-.1-.2-.1-.32v-13.1h-4.18c-.12 0-.23-.03-.32-.1-.1-.07-.17-.19-.24-.35-.06-.16-.1-.38-.14-.67-.03-.28-.04-.63-.04-1.04q0-.555.06-.93c.03-.26.08-.47.14-.63.07-.15.14-.27.23-.34.08-.07.19-.1.31-.1h13.03c.11 0 .21.03.3.1.1.07.18.19.24.34.06.16.11.38.14.65.03.26.04.59.04.97" class="fil2"/><path d="M239.78 72.5c0 5.25-.61 9.81-1.8 13.67-1.19 3.87-2.93 7.08-5.23 9.62-2.28 2.55-5.09 4.45-8.41 5.71s-7.15 1.89-11.48 1.89c-1.49 0-3.01-.1-4.56-.34-1.57-.21-3.04-.52-4.42-.9-1.39-.37-2.61-.82-3.68-1.33-1.09-.51-1.83-.98-2.25-1.38-.44-.41-.72-.75-.84-1.01-.14-.28-.26-.64-.34-1.09-.09-.43-.17-.96-.22-1.59s-.06-1.4-.06-2.35c0-1.49.14-2.57.4-3.24.28-.67.67-1.01 1.2-1.01.35 0 .85.23 1.49.71.63.49 1.5 1 2.6 1.54 1.09.56 2.46 1.07 4.12 1.52 1.66.47 3.67.7 6.08.7 2.14 0 4.09-.34 5.82-1.02 1.72-.69 3.22-1.73 4.48-3.12 1.26-1.4 2.25-3.15 2.98-5.25.73-2.09 1.15-4.56 1.27-7.37h-24.47c-.31 0-.57-.08-.77-.25-.22-.17-.41-.43-.56-.8-.14-.36-.27-.84-.34-1.43-.08-.61-.11-1.32-.11-2.17 0-.86.03-1.59.11-2.19.07-.61.2-1.09.34-1.44.15-.35.34-.61.56-.78.2-.17.46-.25.77-.25h24.33c-.2-2.47-.71-4.64-1.5-6.55-.79-1.89-1.82-3.49-3.09-4.79-1.29-1.32-2.81-2.3-4.61-2.95-1.78-.65-3.77-.98-5.93-.98-1.97 0-3.7.24-5.22.69-1.53.45-2.84.94-3.95 1.49a22 22 0 0 0-2.71 1.5c-.7.47-1.21.7-1.55.7a.8.8 0 0 1-.53-.2c-.16-.14-.31-.37-.44-.68-.1-.33-.21-.75-.29-1.31-.08-.54-.11-1.22-.11-2.03 0-.92.02-1.69.06-2.33.05-.63.13-1.15.22-1.57.09-.4.2-.76.34-1.04.13-.29.34-.57.64-.83.28-.28.87-.65 1.75-1.15.87-.5 1.99-.98 3.34-1.41 1.35-.44 2.88-.81 4.59-1.12 1.72-.33 3.6-.48 5.63-.48 4.04 0 7.68.63 10.94 1.89s6.04 3.15 8.3 5.67c2.28 2.51 4.04 5.64 5.26 9.38 1.23 3.76 1.85 8.1 1.85 13.05" class="fil2"/><path id="_1_0" d="M295.69 100.74c0 .3-.1.58-.3.82s-.53.44-.98.59c-.45.14-1.05.27-1.81.36-.75.09-1.71.14-2.84.14-1.18 0-2.16-.05-2.93-.14-.78-.09-1.37-.22-1.82-.36-.43-.15-.74-.35-.95-.59-.2-.24-.29-.52-.29-.82V76.95H261.7v23.79c0 .3-.09.58-.27.82s-.5.44-.95.59c-.45.14-1.06.27-1.82.36-.74.09-1.72.14-2.88.14-1.15 0-2.11-.05-2.89-.14-.77-.09-1.38-.22-1.83-.36-.45-.15-.78-.35-.98-.59s-.29-.52-.29-.82V45.16c0-.29.09-.57.29-.82.2-.23.53-.43.98-.59s1.06-.26 1.83-.36c.78-.09 1.74-.14 2.89-.14 1.16 0 2.14.05 2.88.14.76.1 1.37.22 1.82.36.45.16.77.36.95.59.18.25.27.53.27.82v21.65h22.07V45.16c0-.29.09-.57.29-.82.21-.23.52-.43.95-.59.45-.14 1.04-.26 1.82-.36.77-.09 1.75-.14 2.93-.14 1.13 0 2.09.05 2.84.14.76.1 1.36.2 1.81.36s.78.36.98.59c.2.25.3.53.3.82z" class="fil2"/><path id="_2_1" d="M343.34 97.67c0 .88-.04 1.61-.11 2.22-.08.59-.19 1.07-.34 1.43-.16.37-.35.63-.58.8-.22.17-.48.25-.74.25h-29.52c-.99 0-1.83-.29-2.51-.88s-1.02-1.56-1.02-2.89V47.3q0-1.995 1.02-2.88c.68-.59 1.52-.89 2.51-.89h29.38c.26 0 .51.08.73.24.2.15.38.41.54.79.14.38.26.87.34 1.46.08.6.11 1.35.11 2.26 0 .85-.03 1.57-.11 2.17-.08.59-.19 1.07-.34 1.43q-.24.555-.54.81c-.22.17-.47.25-.73.25h-21v14.33h17.69c.28 0 .53.08.75.25.23.17.42.42.57.78.16.34.26.8.34 1.41.08.59.11 1.3.11 2.14 0 .88-.03 1.61-.11 2.19-.08.57-.18 1.04-.34 1.38-.15.36-.34.6-.57.74q-.33.24-.75.24h-17.69v16.57h21.14c.28 0 .52.08.74.25.23.17.42.43.58.8.15.36.26.84.34 1.43.07.61.11 1.33.11 2.22" class="fil2"/><path id="_3_2" d="M394.24 61.41c0 3.32-.51 6.24-1.55 8.78-1.02 2.56-2.53 4.7-4.51 6.44-1.97 1.75-4.39 3.07-7.26 3.99-2.87.91-6.26 1.36-10.15 1.36h-4.92v18.76c0 .31-.09.58-.29.82-.21.24-.53.44-.98.59-.45.16-1.06.27-1.82.36-.74.09-1.72.14-2.88.14-1.15 0-2.11-.05-2.89-.14s-1.38-.22-1.83-.36c-.45-.15-.78-.35-.95-.59-.18-.24-.28-.52-.28-.82V47.82c0-1.43.38-2.5 1.12-3.22.75-.71 1.72-1.07 2.93-1.07h13.87c1.4 0 2.74.05 3.99.16 1.26.11 2.76.34 4.53.68 1.76.36 3.54.99 5.34 1.94 1.8.93 3.35 2.13 4.62 3.57 1.28 1.44 2.25 3.12 2.92 5.06.67 1.92.99 4.08.99 6.47m-12.47.87c0-2.07-.37-3.77-1.1-5.11-.73-1.33-1.63-2.33-2.7-2.96a9 9 0 0 0-3.35-1.21c-1.18-.17-2.39-.25-3.65-.25h-5.12v20.02h5.4c1.92 0 3.52-.27 4.83-.78 1.28-.51 2.35-1.24 3.18-2.17.82-.92 1.44-2.04 1.87-3.32.42-1.29.64-2.7.64-4.22" class="fil2"/><path id="_4_3" d="M436.81 48.47c0 .9-.04 1.66-.11 2.28-.08.62-.2 1.11-.34 1.49-.16.39-.35.65-.58.82s-.49.25-.79.25h-19.5v47.52c0 .3-.1.56-.3.8-.2.23-.53.41-.98.57-.45.14-1.07.26-1.81.34-.76.08-1.74.11-2.92.11-1.15 0-2.11-.03-2.88-.11-.78-.08-1.4-.2-1.85-.34-.45-.16-.78-.34-.98-.57-.2-.24-.29-.5-.29-.8V47.3c0-1.27.32-2.22.97-2.84.66-.62 1.51-.93 2.58-.93h27.96c.61 0 1.06.38 1.37 1.14.29.76.45 2.01.45 3.8" class="fil2"/><path id="_5_4" d="M493.95 72.27c0 4.87-.6 9.23-1.81 13.08s-3.01 7.12-5.42 9.79c-2.39 2.68-5.35 4.73-8.87 6.14-3.54 1.42-7.62 2.11-12.26 2.11-4.58 0-8.57-.6-11.96-1.8-3.42-1.19-6.26-3.01-8.54-5.47-2.26-2.45-3.97-5.57-5.1-9.36-1.14-3.78-1.71-8.27-1.71-13.45 0-4.75.61-9.03 1.82-12.83 1.21-3.81 3.01-7.03 5.41-9.7 2.39-2.67 5.35-4.72 8.88-6.13 3.53-1.43 7.63-2.14 12.3-2.14q6.675 0 11.79 1.77c3.4 1.18 6.26 2.99 8.54 5.46 2.29 2.45 4.02 5.54 5.18 9.28 1.16 3.75 1.75 8.16 1.75 13.25m-12.57.6c0-3.08-.24-5.89-.72-8.42-.49-2.53-1.31-4.7-2.47-6.5-1.17-1.8-2.72-3.2-4.66-4.19-1.94-.98-4.36-1.48-7.26-1.48-2.93 0-5.38.56-7.34 1.66-1.97 1.11-3.57 2.6-4.78 4.44-1.21 1.85-2.06 4.01-2.56 6.47-.49 2.48-.74 5.09-.74 7.85 0 3.22.25 6.1.73 8.66s1.3 4.75 2.45 6.58c1.15 1.82 2.68 3.2 4.62 4.16 1.94.95 4.38 1.43 7.31 1.43s5.39-.55 7.34-1.65c1.97-1.08 3.57-2.57 4.78-4.45s2.06-4.07 2.56-6.57c.5-2.49.74-5.16.74-7.99" class="fil2"/></g></svg>